<?xml version="1.0" encoding="UTF-8"?>
<svg width="88px" height="78px" viewBox="0 0 88 78" version="1.1" xmlns="http://www.w3.org/2000/svg" xmlns:xlink="http://www.w3.org/1999/xlink">
    <!-- Generator: Sketch 62 (91390) - https://sketch.com -->
    <title>Fill 6</title>
    <desc>Created with Sketch.</desc>
    <g id="Symbols" stroke="none" stroke-width="1" fill="none" fill-rule="evenodd">
        <g id="CONTESTS" transform="translate(-170.000000, -41.000000)" fill="#FFFFFF">
            <g id="Group">
                <path d="M252.2109,61.7396 C252.2109,67.8286 245.2769,76.0436 234.9529,78.7116 C236.6859,73.3896 237.7409,66.8936 237.7409,59.0866 L237.7409,55.4686 L252.2109,55.4686 L252.2109,61.7396 Z M213.6249,94.0546 C202.7729,94.0546 194.3319,78.3796 194.3319,59.0866 L194.3319,45.8226 L232.9179,45.8226 L232.9179,59.0866 C232.9179,78.3796 224.4779,94.0546 213.6249,94.0546 L213.6249,94.0546 Z M175.0399,61.7396 L175.0399,55.4686 L189.5089,55.4686 L189.5089,59.0866 C189.5089,66.8936 190.5649,73.3896 192.2979,78.7116 C181.9579,76.0436 175.0399,67.8286 175.0399,61.7396 L175.0399,61.7396 Z M237.7409,50.6456 L237.7409,42.8076 C237.7409,41.8136 236.9269,40.9996 235.9329,40.9996 L191.3179,40.9996 C190.3229,40.9996 189.5089,41.8136 189.5089,42.8076 L189.5089,50.6456 L172.0249,50.6456 C171.0299,50.6456 170.2169,51.4596 170.2169,52.4546 L170.2169,61.7396 C170.2169,71.0986 180.4809,81.9966 194.4379,84.0616 C198.8689,93.2106 205.5459,97.6726 211.2139,98.6666 L211.2139,113.3466 L198.2509,113.3466 C196.0809,113.3466 194.3319,115.1106 194.3319,117.2816 C194.3319,117.7786 194.7389,118.1706 195.2359,118.1706 L232.0139,118.1706 C232.5109,118.1706 232.9179,117.7786 232.9179,117.2816 C232.9179,115.1106 231.1699,113.3466 228.9989,113.3466 L216.0369,113.3466 L216.0369,98.6666 C221.7189,97.6726 228.3809,93.2106 232.8129,84.0616 C246.7839,81.9966 257.0339,71.0846 257.0339,61.7396 L257.0339,52.4546 C257.0339,51.4596 256.2199,50.6456 255.2259,50.6456 L237.7409,50.6456 Z" id="Fill-6"></path>
            </g>
        </g>
    </g>
</svg>