<?xml version="1.0" encoding="UTF-8"?>
<svg width="71px" height="81px" viewBox="0 0 71 81" version="1.1" xmlns="http://www.w3.org/2000/svg" xmlns:xlink="http://www.w3.org/1999/xlink">
    <!-- Generator: Sketch 62 (91390) - https://sketch.com -->
    <title>Fill 7</title>
    <desc>Created with Sketch.</desc>
    <g id="Symbols" stroke="none" stroke-width="1" fill="none" fill-rule="evenodd">
        <g id="EVENTS" transform="translate(-181.000000, -36.000000)" fill="#FFFFFF">
            <g id="Group">
                <path d="M233.6787,80.7386 L212.5247,101.7226 C211.7857,102.4556 210.5957,102.4516 209.8627,101.7166 L199.2907,91.1146 C198.5557,90.3776 198.5577,89.1836 199.2937,88.4486 L200.6287,87.1176 C201.3657,86.3836 202.5597,86.3846 203.2947,87.1216 L211.2107,95.0606 L229.6967,76.7236 C230.4357,75.9906 231.6287,75.9956 232.3627,76.7346 L233.6897,78.0726 C234.4227,78.8116 234.4177,80.0056 233.6787,80.7386 M244.1107,111.3326 L188.8657,111.3326 C187.4817,111.3326 186.3557,110.2066 186.3557,108.8216 L186.3557,66.1336 L246.6207,66.1336 L246.6207,108.8216 C246.6207,110.2066 245.4947,111.3326 244.1107,111.3326 M188.8657,51.0656 L244.1107,51.0656 C245.4947,51.0656 246.6207,52.1926 246.6207,53.5776 L246.6207,61.1106 L186.3557,61.1106 L186.3557,53.5776 C186.3557,52.1926 187.4817,51.0656 188.8657,51.0656 M244.1107,46.0446 L236.5767,46.0446 L236.5767,37.8836 C236.5767,36.8426 235.7337,35.9996 234.6937,35.9996 L233.4387,35.9996 C232.3987,35.9996 231.5547,36.8426 231.5547,37.8836 L231.5547,46.0446 L201.4217,46.0446 L201.4217,37.8836 C201.4217,36.8426 200.5777,35.9996 199.5377,35.9996 L198.2827,35.9996 C197.2427,35.9996 196.3997,36.8426 196.3997,37.8836 L196.3997,46.0446 L188.8657,46.0446 C184.7057,46.0446 181.3327,49.4166 181.3327,53.5776 L181.3327,108.8216 C181.3327,112.9816 184.7057,116.3546 188.8657,116.3546 L244.1107,116.3546 C248.2707,116.3546 251.6437,112.9816 251.6437,108.8216 L251.6437,53.5776 C251.6437,49.4166 248.2707,46.0446 244.1107,46.0446" id="Fill-7"></path>
            </g>
        </g>
    </g>
</svg>