<?xml version="1.0" encoding="UTF-8"?>
<svg width="59px" height="78px" viewBox="0 0 59 78" version="1.1" xmlns="http://www.w3.org/2000/svg" xmlns:xlink="http://www.w3.org/1999/xlink">
    <!-- Generator: Sketch 62 (91390) - https://sketch.com -->
    <title>Fill 4</title>
    <desc>Created with Sketch.</desc>
    <g id="Symbols" stroke="none" stroke-width="1" fill="none" fill-rule="evenodd">
        <g id="EXHIBITORS" transform="translate(-184.000000, -37.000000)" fill="#FFFFFF">
            <g id="Group">
                <path d="M213.625,108.5189 C192.604,78.1199 189.48,75.7059 189.48,65.9729 C189.48,59.5239 191.992,53.4599 196.552,48.9009 C201.112,44.3399 207.176,41.8289 213.625,41.8289 C220.074,41.8289 226.138,44.3399 230.698,48.9009 C235.259,53.4599 237.771,59.5239 237.771,65.9729 C237.771,75.7059 234.647,78.1169 213.625,108.5189 M213.625,36.9989 C197.623,36.9989 184.651,49.9709 184.651,65.9729 C184.651,77.6559 188.721,80.9169 210.647,112.7049 C212.086,114.7829 215.164,114.7829 216.603,112.7049 C238.529,80.9169 242.599,77.6559 242.599,65.9729 C242.599,49.9709 229.627,36.9989 213.625,36.9989 M213.625,75.6309 C208.3,75.6309 203.967,71.2989 203.967,65.9729 C203.967,60.6479 208.3,56.3159 213.625,56.3159 C218.95,56.3159 223.283,60.6479 223.283,65.9729 C223.283,71.2989 218.95,75.6309 213.625,75.6309 M213.625,51.4869 C205.637,51.4869 199.138,57.9859 199.138,65.9729 C199.138,73.9609 205.637,80.4599 213.625,80.4599 C221.613,80.4599 228.112,73.9609 228.112,65.9729 C228.112,57.9859 221.613,51.4869 213.625,51.4869" id="Fill-4"></path>
            </g>
        </g>
    </g>
</svg>