<?xml version="1.0" encoding="UTF-8"?>
<svg width="77px" height="77px" viewBox="0 0 77 77" version="1.1" xmlns="http://www.w3.org/2000/svg" xmlns:xlink="http://www.w3.org/1999/xlink">
    <!-- Generator: Sketch 62 (91390) - https://sketch.com -->
    <title>Fill 5</title>
    <desc>Created with Sketch.</desc>
    <g id="Symbols" stroke="none" stroke-width="1" fill="none" fill-rule="evenodd">
        <g id="FEATURES/PAVILIONS" transform="translate(-178.000000, -33.000000)" fill="#FFFFFF">
            <g id="Group">
                <path d="M249.9863,61.8265 L247.5933,57.0405 L245.2003,61.8265 L240.4143,64.2195 L245.2003,66.6125 L247.5933,71.3985 L249.9863,66.6125 L254.7723,64.2195 L249.9863,61.8265 Z M225.5333,45.5835 C225.9963,45.3595 226.3703,44.9705 226.6093,44.5075 L228.4493,40.8125 L230.2893,44.5075 C230.5283,44.9705 230.9023,45.3445 231.3663,45.5835 L235.0603,47.4375 L231.3663,49.2935 C230.9023,49.5165 230.5283,49.9065 230.2893,50.3695 L228.4493,54.0635 L226.6093,50.3695 C226.3703,49.9065 225.9963,49.5325 225.5333,49.2935 L221.8393,47.4375 L225.5333,45.5835 Z M215.4073,49.5925 L222.6753,53.2265 L226.3103,60.4955 C226.7153,61.3035 227.5373,61.8265 228.4493,61.8265 C229.3613,61.8265 230.1843,61.3175 230.5883,60.4955 L234.2223,53.2265 L241.4913,49.5925 C242.2993,49.1875 242.8073,48.3505 242.8073,47.4535 C242.8073,46.5555 242.2993,45.7185 241.4913,45.3145 L234.2223,41.6805 L230.5883,34.3815 C229.7803,32.7515 227.1183,32.7515 226.3103,34.3815 L222.6753,41.6495 L215.4073,45.2845 C214.5993,45.6885 214.0903,46.5255 214.0903,47.4235 C214.0903,48.3205 214.5993,49.1735 215.4073,49.5925 L215.4073,49.5925 Z M219.8943,86.6245 L218.0993,88.3885 L218.5183,90.8715 L220.7313,103.8245 L209.1263,97.7075 L206.8973,96.5255 L204.6693,97.7075 L193.0623,103.8245 L195.2763,90.8715 L195.6943,88.3885 L193.9003,86.6245 L184.5223,77.4405 L197.5053,75.5415 L199.9873,75.1825 L201.0933,72.9245 L206.9123,61.1385 L212.7153,72.9245 L213.8223,75.1825 L216.3043,75.5415 L229.2873,77.4405 L219.8943,86.6245 Z M232.6813,73.0885 L216.9933,70.8005 L209.9783,56.5475 C209.3493,55.2755 208.1243,54.6325 206.8973,54.6325 C205.6713,54.6325 204.4593,55.2605 203.8313,56.5475 L196.8163,70.8005 L181.1423,73.0885 C178.3303,73.4925 177.2093,76.9765 179.2433,78.9665 L190.5943,90.0495 L187.9023,105.7085 C187.5133,107.9525 189.2933,109.7465 191.2823,109.7465 C191.8053,109.7465 192.3593,109.6275 192.8823,109.3435 L206.9123,101.9545 L220.9413,109.3435 C221.4653,109.6125 222.0033,109.7465 222.5263,109.7465 C224.5153,109.7465 226.2963,107.9525 225.9223,105.7235 L223.2443,90.0635 L234.5963,78.9815 C236.6313,76.9765 235.4943,73.5075 232.6813,73.0885 L232.6813,73.0885 Z" id="Fill-5"></path>
            </g>
        </g>
    </g>
</svg>