<?xml version="1.0" encoding="UTF-8"?>
<svg width="73px" height="82px" viewBox="0 0 73 82" version="1.1" xmlns="http://www.w3.org/2000/svg" xmlns:xlink="http://www.w3.org/1999/xlink">
    <!-- Generator: Sketch 62 (91390) - https://sketch.com -->
    <title>Fill 3</title>
    <desc>Created with Sketch.</desc>
    <g id="Symbols" stroke="none" stroke-width="1" fill="none" fill-rule="evenodd">
        <g id="SCHEDULE" transform="translate(-179.000000, -34.000000)" fill="#FFFFFF">
            <g id="Group">
                <path d="M233.9912,100.3549 L227.6112,100.3549 C226.5582,100.3549 225.6972,99.4939 225.6972,98.4409 L225.6972,92.0609 C225.6972,91.0079 226.5582,90.1469 227.6112,90.1469 L233.9912,90.1469 C235.0442,90.1469 235.9052,91.0079 235.9052,92.0609 L235.9052,98.4409 C235.9052,99.4939 235.0442,100.3549 233.9912,100.3549 M203.3652,100.3549 L196.9852,100.3549 C195.9322,100.3549 195.0712,99.4939 195.0712,98.4409 L195.0712,92.0609 C195.0712,91.0079 195.9322,90.1469 196.9852,90.1469 L203.3652,90.1469 C204.4182,90.1469 205.2792,91.0079 205.2792,92.0609 L205.2792,98.4409 C205.2792,99.4939 204.4182,100.3549 203.3652,100.3549 M218.6782,100.3549 L212.2982,100.3549 C211.2452,100.3549 210.3842,99.4939 210.3842,98.4409 L210.3842,92.0609 C210.3842,91.0079 211.2452,90.1469 212.2982,90.1469 L218.6782,90.1469 C219.7312,90.1469 220.5932,91.0079 220.5932,92.0609 L220.5932,98.4409 C220.5932,99.4939 219.7312,100.3549 218.6782,100.3549 M233.9912,85.0419 L227.6112,85.0419 C226.5582,85.0419 225.6972,84.1809 225.6972,83.1279 L225.6972,76.7479 C225.6972,75.6949 226.5582,74.8339 227.6112,74.8339 L233.9912,74.8339 C235.0442,74.8339 235.9052,75.6949 235.9052,76.7479 L235.9052,83.1279 C235.9052,84.1809 235.0442,85.0419 233.9912,85.0419 M218.6782,85.0419 L212.2982,85.0419 C211.2452,85.0419 210.3842,84.1809 210.3842,83.1279 L210.3842,76.7479 C210.3842,75.6949 211.2452,74.8339 212.2982,74.8339 L218.6782,74.8339 C219.7312,74.8339 220.5932,75.6949 220.5932,76.7479 L220.5932,83.1279 C220.5932,84.1809 219.7312,85.0419 218.6782,85.0419 M203.3652,85.0419 L196.9852,85.0419 C195.9322,85.0419 195.0712,84.1809 195.0712,83.1279 L195.0712,76.7479 C195.0712,75.6949 195.9322,74.8339 196.9852,74.8339 L203.3652,74.8339 C204.4182,74.8339 205.2792,75.6949 205.2792,76.7479 L205.2792,83.1279 C205.2792,84.1809 204.4182,85.0419 203.3652,85.0419 M243.5612,110.5629 L187.4152,110.5629 C186.0112,110.5629 184.8622,109.4149 184.8622,108.0119 L184.8622,64.6259 L246.1142,64.6259 L246.1142,108.0119 C246.1142,109.4149 244.9662,110.5629 243.5612,110.5629 M187.4152,49.3129 L243.5612,49.3129 C244.9662,49.3129 246.1142,50.4609 246.1142,51.8649 L246.1142,59.5209 L184.8622,59.5209 L184.8622,51.8649 C184.8622,50.4609 186.0112,49.3129 187.4152,49.3129 M243.5612,44.2079 L235.9052,44.2079 L235.9052,35.9139 C235.9052,34.8609 235.0442,33.9999 233.9912,33.9999 L232.7152,33.9999 C231.6622,33.9999 230.8012,34.8609 230.8012,35.9139 L230.8012,44.2079 L200.1762,44.2079 L200.1762,35.9139 C200.1762,34.8609 199.3142,33.9999 198.2622,33.9999 L196.9852,33.9999 C195.9322,33.9999 195.0712,34.8609 195.0712,35.9139 L195.0712,44.2079 L187.4152,44.2079 C183.1872,44.2079 179.7592,47.6379 179.7592,51.8649 L179.7592,108.0119 C179.7592,112.2389 183.1872,115.6679 187.4152,115.6679 L243.5612,115.6679 C247.7892,115.6679 251.2182,112.2389 251.2182,108.0119 L251.2182,51.8649 C251.2182,47.6379 247.7892,44.2079 243.5612,44.2079" id="Fill-3"></path>
            </g>
        </g>
    </g>
</svg>