<?xml version="1.0" encoding="UTF-8"?>
<svg width="51px" height="81px" viewBox="0 0 51 81" version="1.1" xmlns="http://www.w3.org/2000/svg" xmlns:xlink="http://www.w3.org/1999/xlink">
    <!-- Generator: Sketch 62 (91390) - https://sketch.com -->
    <title>Fill 2</title>
    <desc>Created with Sketch.</desc>
    <g id="Symbols" stroke="none" stroke-width="1" fill="none" fill-rule="evenodd">
        <g id="SPEAKERS" transform="translate(-187.000000, -34.000000)" fill="#FFFFFF">
            <g id="Group">
                <path d="M236.418,64.0541 L233.914,64.0541 C233.222,64.0541 232.661,64.6141 232.661,65.3061 L232.661,74.0721 C232.661,85.5711 222.925,94.8411 211.259,94.0631 C200.619,93.3541 192.589,84.0291 192.589,73.3661 L192.589,65.3061 C192.589,64.6141 192.028,64.0541 191.337,64.0541 L188.832,64.0541 C188.141,64.0541 187.58,64.6141 187.58,65.3061 L187.58,73.1861 C187.58,86.2401 197.229,97.6241 210.12,98.9251 L210.12,109.1361 L198.851,109.1361 C198.158,109.1361 197.598,109.6961 197.598,110.3881 L197.598,112.8921 C197.598,113.5841 198.158,114.1451 198.851,114.1451 L226.4,114.1451 C227.092,114.1451 227.652,113.5841 227.652,112.8921 L227.652,110.3881 C227.652,109.6961 227.092,109.1361 226.4,109.1361 L215.13,109.1361 L215.13,98.9591 C227.764,97.6931 237.671,87.0331 237.671,74.0721 L237.671,65.3061 C237.671,64.6141 237.11,64.0541 236.418,64.0541 L236.418,64.0541 Z M202.607,49.0271 C202.607,43.5031 207.101,39.0091 212.625,39.0091 C218.149,39.0091 222.644,43.5031 222.644,49.0271 L213.877,49.0271 C213.186,49.0271 212.625,49.5871 212.625,50.2791 L212.625,52.7831 C212.625,53.4751 213.186,54.0361 213.877,54.0361 L222.644,54.0361 L222.644,59.0451 L213.877,59.0451 C213.186,59.0451 212.625,59.6051 212.625,60.2971 L212.625,62.8021 C212.625,63.4931 213.186,64.0541 213.877,64.0541 L222.644,64.0541 L222.644,69.0631 L213.877,69.0631 C213.186,69.0631 212.625,69.6231 212.625,70.3151 L212.625,72.8201 C212.625,73.5121 213.186,74.0721 213.877,74.0721 L222.644,74.0721 C222.644,79.5961 218.149,84.0901 212.625,84.0901 C207.101,84.0901 202.607,79.5961 202.607,74.0721 L202.607,49.0271 Z M212.625,89.0991 C220.925,89.0991 227.652,82.3711 227.652,74.0721 L227.652,49.0271 C227.652,40.7271 220.925,33.9991 212.625,33.9991 C204.326,33.9991 197.598,40.7271 197.598,49.0271 L197.598,74.0721 C197.598,82.3711 204.326,89.0991 212.625,89.0991 L212.625,89.0991 Z" id="Fill-2"></path>
            </g>
        </g>
    </g>
</svg>